# xmcd CD database file
#
# Track frame offsets:
#	150
#	12377
#	28407
#	40157
#	51770
#	65092
#	79425
#	89377
#	100432
#	114202
#	127180
#	140402
#	163612
#	181972
#
# Disc length: 2734 seconds
#
# Revision: 0
# Processed by: cddbd v1.4PL0 Copyright (c) Steve Scherf et al.
# Submitted via: CDex 1.51
#
DISCID=c70aac0e
DTITLE=Dizzy Gillespie - School Days (Produced 2003)
DYEAR=1900
DGENRE=Jazz
TTITLE0=Oh! Lady Be Good
TTITLE1=Pop's Confessin'
TTITLE2=Nobody Knows
TTITLE3=Bopsie's Blues
TTITLE4=I Couldn't Beat The Rap
TTITLE5=School Days
TTITLE6=I'm In A Mess
TTITLE7=The Umbrella Man
TTITLE8=Love Me, Pretty Baby
TTITLE9=We Love To Boogie
TTITLE10=Caravan
TTITLE11=A Night In Tunisia
TTITLE12=Dizzy Atmosphere
TTITLE13=Groovin' High
EXTD=
EXTT0=
EXTT1=
EXTT2=
EXTT3=
EXTT4=
EXTT5=
EXTT6=
EXTT7=
EXTT8=
EXTT9=
EXTT10=
EXTT11=
EXTT12=
EXTT13=
PLAYORDER=
